<?xml version="1.0" encoding="UTF-8"?>
<svg version="1.1" xmlns="http://www.w3.org/2000/svg" width="772" height="146">
<path d="M0 0 C21.45 0 42.9 0 65 0 C65 2.64 65 5.28 65 8 C46.85 8 28.7 8 10 8 C10 9.32 10 10.64 10 12 C27.16 12 44.32 12 62 12 C62 14.64 62 17.28 62 20 C44.84 20 27.68 20 10 20 C10 21.65 10 23.3 10 25 C27.16 25 44.32 25 62 25 C62 27.64 62 30.28 62 33 C44.84 33 27.68 33 10 33 C10 34.65 10 36.3 10 38 C30.13 38 50.26 38 71 38 C71 40.64 71 43.28 71 46 C66.71 46.33 62.42 46.66 58 47 C59.65 48.32 61.3 49.64 63 51 C61.4958659 55.3029659 58.75152588 56.60553888 54.875 58.75 C53.23144531 59.67039062 53.23144531 59.67039062 51.5546875 60.609375 C50.29011719 61.29773438 50.29011719 61.29773438 49 62 C51.53916175 62.98611151 54.0810023 63.96400876 56.625 64.9375 C57.33785156 65.21529297 58.05070312 65.49308594 58.78515625 65.77929688 C62.85095932 67.32728612 66.65316375 68.45835952 71 69 C70.60404157 70.48484412 70.18249294 71.9628831 69.75 73.4375 C69.51796875 74.26121094 69.2859375 75.08492188 69.046875 75.93359375 C68 78 68 78 66.33203125 78.9140625 C53.48713776 79.38740866 39.09614513 69.49653668 30.13037109 61.33203125 C26.95788814 58.2791273 24.8923539 55.29594259 22.9375 51.375 C21.75325814 48.88623118 21.75325814 48.88623118 20 47 C16.1041697 45.82636075 13.13589962 45.8991244 9 46 C9 52.6 9 59.2 9 66 C14.13150407 64.68752382 14.13150407 64.68752382 19.26098633 63.3671875 C22.24858939 62.61157242 24.90670398 62 28 62 C28 65.3 28 68.6 28 72 C15.36875938 75.04171419 2.94664169 77.75727078 -10 79 C-10.33 75.7 -10.66 72.4 -11 69 C-6.05 68.505 -6.05 68.505 -1 68 C-1 60.74 -1 53.48 -1 46 C-4.63 46 -8.26 46 -12 46 C-12 43.36 -12 40.72 -12 38 C-8.04 38 -4.08 38 0 38 C0 25.46 0 12.92 0 0 Z M31 46 C34.32165153 52.75544216 34.32165153 52.75544216 40 56 C42.89423013 55.20468517 42.89423013 55.20468517 45.625 53.4375 C46.56601562 52.89996094 47.50703125 52.36242187 48.4765625 51.80859375 C51.36686772 49.92849557 51.36686772 49.92849557 54 46 C46.41 46 38.82 46 31 46 Z " fill="#231815" transform="translate(278,16)"/>
<path d="M0 0 C3.37887713 -0.28527105 6.63173355 -0.45018698 10 0 C12.18182341 2.43850852 13 3.7321149 13 7 C23.89 7 34.78 7 46 7 C46 9.31 46 11.62 46 14 C23.89 14 1.78 14 -21 14 C-21 20.6 -21 27.2 -21 34 C-12.09 34 -3.18 34 6 34 C6 32.02 6 30.04 6 28 C-1.59 28 -9.18 28 -17 28 C-17 25.36 -17 22.72 -17 20 C-9.41 20 -1.82 20 6 20 C6 18.35 6 16.7 6 15 C8.97 15 11.94 15 15 15 C15 16.65 15 18.3 15 20 C22.59 20 30.18 20 38 20 C38 24.62 38 29.24 38 34 C40.64 34 43.28 34 46 34 C46 36.64 46 39.28 46 42 C43.36 42 40.72 42 38 42 C38 46.95 38 51.9 38 57 C32.72 57 27.44 57 22 57 C28.34321921 65.34634106 36.14645425 69.71548475 46 73 C45.40844669 74.31823302 44.80128537 75.62947051 44.1875 76.9375 C43.85105469 77.66839844 43.51460938 78.39929688 43.16796875 79.15234375 C42 81 42 81 39 82 C27.36565767 77.72310809 18.3396384 70.74982164 12 60 C11.47212891 60.87011719 11.47212891 60.87011719 10.93359375 61.7578125 C5.09365063 70.99803581 -1.92888927 76.60194737 -12 81 C-13.98821313 81.39764263 -15.98802435 81.74887235 -18 82 C-18.83905565 80.87926138 -19.67107831 79.75325453 -20.5 78.625 C-20.9640625 77.99851562 -21.428125 77.37203125 -21.90625 76.7265625 C-23 75 -23 75 -23 73 C-22.31035156 72.78085938 -21.62070312 72.56171875 -20.91015625 72.3359375 C-10.94215202 68.97224883 -4.78218797 65.13862556 2 57 C-4.27 57 -10.54 57 -17 57 C-17 54.36 -17 51.72 -17 49 C-9.74 49 -2.48 49 5 49 C5 46.69 5 44.38 5 42 C-3.58 42 -12.16 42 -21 42 C-21 45.96 -21 49.92 -21 54 C-22.14418981 63.60003157 -24.88976799 72.27591072 -29 81 C-30.14926266 80.04578192 -31.29430541 79.08647955 -32.4375 78.125 C-33.07558594 77.59132813 -33.71367187 77.05765625 -34.37109375 76.5078125 C-36 75 -36 75 -37 73 C-36.17499167 70.37455913 -35.13304955 67.86475845 -34.10546875 65.3125 C-31.46447877 57.39886217 -30.66454122 49.47719111 -30.3671875 41.1796875 C-30.32562531 40.19501495 -30.28406311 39.21034241 -30.24124146 38.1958313 C-30.11178684 35.08913665 -29.99320645 31.98214085 -29.875 28.875 C-29.78848281 26.7525746 -29.70124988 24.63017824 -29.61328125 22.5078125 C-29.39925364 17.33884384 -29.19997658 12.16960727 -29 7 C-13.655 6.505 -13.655 6.505 2 6 C1.34 4.02 0.68 2.04 0 0 Z M15 28 C15 29.98 15 31.96 15 34 C19.62 34 24.24 34 29 34 C29 32.02 29 30.04 29 28 C24.38 28 19.76 28 15 28 Z M15 42 C14.67 44.31 14.34 46.62 14 49 C18.95 49 23.9 49 29 49 C29 46.69 29 44.38 29 42 C24.38 42 19.76 42 15 42 Z " fill="#231815" transform="translate(444,13)"/>
<path d="M0 0 C1.36442719 2.18601775 2.09077789 3.7916952 2.453125 6.328125 C-2.77199779 7.79482613 -7.1282984 8.55389902 -12.546875 8.328125 C-12.546875 9.648125 -12.546875 10.968125 -12.546875 12.328125 C-8.256875 12.328125 -3.966875 12.328125 0.453125 12.328125 C0.453125 14.308125 0.453125 16.288125 0.453125 18.328125 C-3.836875 18.328125 -8.126875 18.328125 -12.546875 18.328125 C-12.546875 19.648125 -12.546875 20.968125 -12.546875 22.328125 C-8.256875 22.328125 -3.966875 22.328125 0.453125 22.328125 C0.453125 24.638125 0.453125 26.948125 0.453125 29.328125 C-3.506875 29.328125 -7.466875 29.328125 -11.546875 29.328125 C-11.546875 30.978125 -11.546875 32.628125 -11.546875 34.328125 C3.798125 33.833125 3.798125 33.833125 19.453125 33.328125 C18.793125 32.338125 18.133125 31.348125 17.453125 30.328125 C16.586875 30.6375 15.720625 30.946875 14.828125 31.265625 C11.69161762 32.25304399 8.70245087 32.86393559 5.453125 33.328125 C2.453125 29.703125 2.453125 29.703125 2.453125 26.328125 C5.918125 25.833125 5.918125 25.833125 9.453125 25.328125 C8.133125 24.008125 6.813125 22.688125 5.453125 21.328125 C6.140625 19.390625 6.140625 19.390625 7.453125 17.328125 C9.765625 16.390625 9.765625 16.390625 12.453125 16.328125 C15.265625 17.765625 15.265625 17.765625 17.453125 19.328125 C18.113125 18.338125 18.773125 17.348125 19.453125 16.328125 C18.133125 15.008125 16.813125 13.688125 15.453125 12.328125 C14.63908203 12.76125 14.63908203 12.76125 13.80859375 13.203125 C13.09316406 13.574375 12.37773438 13.945625 11.640625 14.328125 C10.93292969 14.699375 10.22523438 15.070625 9.49609375 15.453125 C7.453125 16.328125 7.453125 16.328125 4.453125 16.328125 C2.09589011 13.79628012 1.453125 12.85622407 1.453125 9.328125 C3.763125 8.338125 6.073125 7.348125 8.453125 6.328125 C7.793125 5.874375 7.133125 5.420625 6.453125 4.953125 C5.793125 4.416875 5.133125 3.880625 4.453125 3.328125 C4.453125 2.668125 4.453125 2.008125 4.453125 1.328125 C6.203125 -0.359375 6.203125 -0.359375 8.453125 -1.671875 C10.390625 -1.484375 10.390625 -1.484375 12.453125 -0.671875 C13.814375 -0.1459375 13.814375 -0.1459375 15.203125 0.390625 C16.316875 0.8546875 16.316875 0.8546875 17.453125 1.328125 C18.071875 0.5546875 18.071875 0.5546875 18.703125 -0.234375 C20.453125 -1.671875 20.453125 -1.671875 22.515625 -1.609375 C24.99161365 -0.41131598 25.47930318 0.81241864 26.453125 3.328125 C25.463125 4.318125 24.473125 5.308125 23.453125 6.328125 C23.948125 7.2253125 23.948125 7.2253125 24.453125 8.140625 C25.453125 10.328125 25.453125 10.328125 25.453125 13.328125 C24.793125 13.658125 24.133125 13.988125 23.453125 14.328125 C25.928125 17.298125 25.928125 17.298125 28.453125 20.328125 C26.803125 21.648125 25.153125 22.968125 23.453125 24.328125 C24.773125 25.978125 26.093125 27.628125 27.453125 29.328125 C26.133125 30.648125 24.813125 31.968125 23.453125 33.328125 C29.393125 33.658125 35.333125 33.988125 41.453125 34.328125 C41.453125 32.678125 41.453125 31.028125 41.453125 29.328125 C37.493125 29.328125 33.533125 29.328125 29.453125 29.328125 C29.453125 27.018125 29.453125 24.708125 29.453125 22.328125 C33.413125 22.328125 37.373125 22.328125 41.453125 22.328125 C41.453125 21.008125 41.453125 19.688125 41.453125 18.328125 C37.493125 18.328125 33.533125 18.328125 29.453125 18.328125 C29.453125 16.348125 29.453125 14.368125 29.453125 12.328125 C33.413125 12.328125 37.373125 12.328125 41.453125 12.328125 C41.453125 11.008125 41.453125 9.688125 41.453125 8.328125 C37.163125 8.328125 32.873125 8.328125 28.453125 8.328125 C28.453125 5.688125 28.453125 3.048125 28.453125 0.328125 C35.713125 0.328125 42.973125 0.328125 50.453125 0.328125 C50.53131741 11.74421673 50.50742785 22.95671568 49.453125 34.328125 C51.103125 34.328125 52.753125 34.328125 54.453125 34.328125 C54.453125 41.258125 54.453125 48.188125 54.453125 55.328125 C51.483125 55.328125 48.513125 55.328125 45.453125 55.328125 C45.453125 51.038125 45.453125 46.748125 45.453125 42.328125 C25.323125 42.328125 5.193125 42.328125 -15.546875 42.328125 C-15.546875 46.618125 -15.546875 50.908125 -15.546875 55.328125 C-18.516875 55.328125 -21.486875 55.328125 -24.546875 55.328125 C-24.546875 48.398125 -24.546875 41.468125 -24.546875 34.328125 C-23.226875 34.328125 -21.906875 34.328125 -20.546875 34.328125 C-20.876875 23.438125 -21.206875 12.548125 -21.546875 1.328125 C-18.494375 0.750625 -15.441875 0.173125 -12.296875 -0.421875 C-11.34135742 -0.61491211 -10.38583984 -0.80794922 -9.40136719 -1.00683594 C-3.17539134 -2.08445935 -3.17539134 -2.08445935 0 0 Z " fill="#231815" transform="translate(716.546875,14.671875)"/>
<path d="M0 0 C3.3 0 6.6 0 10 0 C10 6.93 10 13.86 10 21 C21.88 21 33.76 21 46 21 C46 24.63 46 28.26 46 32 C37.09 32 28.18 32 19 32 C25.05843742 48.89018917 32.60199646 62.23210348 48 72 C46.5682479 77.01113235 44.01554307 78.94469549 40 82 C23.08297575 69.12564698 14.99618284 53.64312874 8 34 C7.72027344 34.94359375 7.44054687 35.8871875 7.15234375 36.859375 C1.6869029 54.63602396 -8.1454588 68.58856437 -23 80 C-25.796875 81.25 -25.796875 81.25 -28 82 C-29.03590338 80.93106782 -30.05333942 79.84421512 -31.0625 78.75 C-31.63097656 78.14671875 -32.19945312 77.5434375 -32.78515625 76.921875 C-34 75 -34 75 -33.93359375 72.93359375 C-32.71379764 70.40723778 -31.41877034 69.7108516 -29 68.3125 C-14.99326026 59.41933191 -8.89962237 47.33901817 -3 32 C-12.57 32 -22.14 32 -32 32 C-32 28.37 -32 24.74 -32 21 C-21.77 21 -11.54 21 -1 21 C-0.67 14.07 -0.34 7.14 0 0 Z " fill="#231815" transform="translate(583,13)"/>
<path d="M0 0 C16.75775361 -0.86678036 33.46503348 4.83033429 46 16 C53.53385281 23.08140559 60.94144569 30.37012143 67.65625 38.23828125 C79.92135734 52.42574209 95.28357773 58.17889075 113.4609375 60.28515625 C127.96373558 60.92416843 142.48943765 56.11609038 153.3125 46.5625 C154.88779941 45.05492843 156.45143924 43.53502439 158 42 C158.92039063 41.13568359 158.92039063 41.13568359 159.859375 40.25390625 C163.35338789 36.91215539 166.40368419 33.32629538 169.4375 29.5625 C182.10957169 13.91506013 196.67056692 4.1512941 216.5625 0.3125 C221.05052723 -0.09550248 225.4971568 -0.08154042 230 0 C230 2.64 230 5.28 230 8 C228.98421875 8.09796875 227.9684375 8.1959375 226.921875 8.296875 C204.40172398 10.65714949 188.99200739 19.75000388 174.53125 36.93359375 C173.07326874 38.74323599 171.618731 40.55565902 170.16796875 42.37109375 C159.41126829 55.4148044 145.99108425 65.13395964 129 68 C124.64841961 68.24553672 120.29533318 68.23114512 115.9375 68.25 C114.77283203 68.270625 113.60816406 68.29125 112.40820312 68.3125 C91.10940204 68.40742502 76.35454553 59.32330639 61.5847168 44.76098633 C56.66874729 39.86931408 51.8024624 34.98249803 47.2734375 29.7265625 C34.82230488 15.32567921 18.56069366 9.57294014 0 8 C0 5.36 0 2.72 0 0 Z " fill="#F39700" transform="translate(0,78)"/>
<path d="M0 0 C0.94101563 0.40089844 1.88203125 0.80179687 2.8515625 1.21484375 C16.66885465 7.92888007 26.82674414 20.87726157 36.6875 32.25 C37.79080962 33.50075653 38.89493402 34.75079497 40 36 C40.49242187 36.58265625 40.98484375 37.1653125 41.4921875 37.765625 C52.69076595 50.13420418 69.24121442 54.75429841 85.375 55.921875 C85.91125 55.94765625 86.4475 55.9734375 87 56 C87 58.64 87 61.28 87 64 C67.43823283 65.24274756 51.36408 58.30797029 36.9375 45.6875 C31.25539545 40.45070145 26.20488859 34.71630699 21.1640625 28.87109375 C9.73191602 15.65429092 -1.37173163 6.84982787 -19.25 4.25 C-20.4875 4.1675 -21.725 4.085 -23 4 C-23.63421875 3.9484375 -24.2684375 3.896875 -24.921875 3.84375 C-41.81803051 3.08151742 -57.38339754 9.27527623 -70.08984375 20.22265625 C-76.96765843 26.62348063 -83.18281288 33.75298101 -89.53222656 40.66894531 C-101.64964377 53.7577657 -116.14413454 62.00910211 -134 64 C-135.64485066 64.06056151 -137.29172957 64.08781955 -138.9375 64.0625 C-139.70964844 64.05347656 -140.48179687 64.04445313 -141.27734375 64.03515625 C-141.84582031 64.02355469 -142.41429687 64.01195313 -143 64 C-143 61.36 -143 58.72 -143 56 C-141.74445313 55.82984375 -140.48890625 55.6596875 -139.1953125 55.484375 C-117.14152297 52.35555283 -102.65304258 43.46907737 -88.046875 26.32421875 C-65.964714 1.25000922 -33.43070838 -14.60876161 0 0 Z " fill="#F39700" transform="translate(143,4)"/>
<path d="M0 0 C1.26330534 0.63528518 2.52231205 1.27916871 3.77758789 1.93017578 C4.46223618 2.27669693 5.14688446 2.62321808 5.85227966 2.98023987 C7.31528706 3.72163552 8.776493 4.46659503 10.23602295 5.21481323 C14.0466112 7.16818012 17.87001053 9.09620375 21.69165039 11.02783203 C22.44994141 11.41203812 23.20823242 11.7962442 23.98950195 12.1920929 C33.09578742 16.79851212 42.30541223 21.18399298 51.53686523 25.53344727 C53.5581853 26.49831215 55.5626071 27.49254299 57.56274414 28.50048828 C57.56274414 29.16048828 57.56274414 29.82048828 57.56274414 30.50048828 C53.7745433 32.50710512 49.98163362 34.50465069 46.18774414 36.50048828 C44.56739258 37.35900391 44.56739258 37.35900391 42.91430664 38.23486328 C41.88305664 38.77626953 40.85180664 39.31767578 39.78930664 39.87548828 C38.83620605 40.37822266 37.88310547 40.88095703 36.90112305 41.39892578 C34.56274414 42.50048828 34.56274414 42.50048828 32.56274414 42.50048828 C32.45449571 40.89781008 32.37703769 39.2930308 32.31274414 37.68798828 C32.26633789 36.79466797 32.21993164 35.90134766 32.17211914 34.98095703 C32.56274414 32.50048828 32.56274414 32.50048828 34.5871582 30.84545898 C35.23910156 30.40161865 35.89104492 29.95777832 36.56274414 29.50048828 C30.70255936 26.46889991 24.82992456 23.46257235 18.94799805 20.47338867 C16.9489536 19.45376252 14.95281997 18.42840831 12.9597168 17.3972168 C10.09268989 15.91513388 7.21579296 14.4540311 4.33618164 12.99658203 C3.44845062 12.53207138 2.5607196 12.06756073 1.64608765 11.588974 C-1.85520008 9.83707145 -4.50546847 8.51920857 -8.45092773 8.43994141 C-12.79338105 9.98209454 -16.8718216 11.91600685 -20.99194336 13.97314453 C-21.89349152 14.41565048 -22.79503967 14.85815643 -23.72390747 15.31407166 C-26.59035049 16.72308476 -29.45130951 18.14285298 -32.31225586 19.56298828 C-34.25982013 20.52268813 -36.20773314 21.48168059 -38.15600586 22.43994141 C-42.92049335 24.78527682 -47.68052957 27.13945505 -52.43725586 29.50048828 C-51.21486206 30.16624878 -51.21486206 30.16624878 -49.96777344 30.84545898 C-48.71516724 31.66469849 -48.71516724 31.66469849 -47.43725586 32.50048828 C-46.94897461 34.98095703 -46.94897461 34.98095703 -47.12475586 37.68798828 C-47.19243164 39.03957031 -47.19243164 39.03957031 -47.26147461 40.41845703 C-47.31948242 41.10552734 -47.37749023 41.79259766 -47.43725586 42.50048828 C-53.1404917 40.87366363 -58.11739489 38.16850841 -63.31225586 35.37548828 C-64.19139648 34.90755859 -65.07053711 34.43962891 -65.97631836 33.95751953 C-68.13219857 32.80927898 -70.28572363 31.65684925 -72.43725586 30.50048828 C-72.43725586 29.84048828 -72.43725586 29.18048828 -72.43725586 28.50048828 C-57.34340145 20.90342819 -42.24798734 13.32185815 -26.97412109 6.09106445 C-26.12148682 5.68734619 -25.26885254 5.28362793 -24.39038086 4.86767578 C-23.16351563 4.29291504 -23.16351563 4.29291504 -21.91186523 3.70654297 C-20.18351046 2.86419169 -18.47743695 1.97524421 -16.79077148 1.05224609 C-15.92645508 0.58399414 -15.06213867 0.11574219 -14.17163086 -0.36669922 C-13.40560547 -0.79837402 -12.63958008 -1.23004883 -11.8503418 -1.67480469 C-7.42850951 -3.18602985 -4.16060167 -1.81507319 0 0 Z " fill="#F39700" transform="translate(122.437255859375,33.49951171875)"/>
<path d="M0 0 C16.17 0 32.34 0 49 0 C49 2.31 49 4.62 49 7 C45.7 8.65 42.4 10.3 39 12 C52.365 12.495 52.365 12.495 66 13 C66 15.64 66 18.28 66 21 C54.45 21 42.9 21 31 21 C30.67 23.97 30.34 26.94 30 30 C28.484375 32.546875 28.484375 32.546875 26 34 C23.06007409 34.45160612 20.21512297 34.37784941 17.25 34.25 C16.45722656 34.23195312 15.66445313 34.21390625 14.84765625 34.1953125 C12.89791652 34.14833082 10.94880122 34.07659044 9 34 C7.74335022 31.09399739 7 29.20395416 7 26 C11.62 26 16.24 26 21 26 C21 24.35 21 22.7 21 21 C8.79 21 -3.42 21 -16 21 C-16 18.36 -16 15.72 -16 13 C-3.79 13 8.42 13 21 13 C21 12.01 21 11.02 21 10 C22.98 9.34 24.96 8.68 27 8 C18.09 7.67 9.18 7.34 0 7 C0 4.69 0 2.38 0 0 Z " fill="#231815" transform="translate(706,60)"/>
<path d="M0 0 C9.57 0 19.14 0 29 0 C29 6.27 29 12.54 29 19 C26.36 19 23.72 19 21 19 C21 15.04 21 11.08 21 7 C16.71 7 12.42 7 8 7 C8 20.2 8 33.4 8 47 C15.49382893 49.79541168 15.49382893 49.79541168 20 47 C20.33 40.73 20.66 34.46 21 28 C18.69 28 16.38 28 14 28 C14 26.02 14 24.04 14 22 C18.62 22 23.24 22 28 22 C28.27735888 26.29649455 28.51492319 30.56174471 28.65917969 34.86010742 C28.71925393 36.31690789 28.80096123 37.77299251 28.90527344 39.22729492 C29.23827694 43.99218326 29.29509864 48.346635 28 53 C24.47874387 56.58264201 20.8267899 58.6344964 16 60 C11 59 11 59 0 53 C0 35.51 0 18.02 0 0 Z " fill="#F39700" transform="translate(100,59)"/>
<path d="M0 0 C6 2 6 2 7 3 C7.08847743 5.52094076 7.11527301 8.01430893 7.09765625 10.53515625 C7.0962413 11.28840683 7.09482635 12.04165741 7.09336853 12.81773376 C7.08775376 15.2326956 7.07519883 17.64756601 7.0625 20.0625 C7.0574869 21.69596221 7.05292366 23.32942586 7.04882812 24.96289062 C7.03777954 28.97529585 7.02050506 32.98763241 7 37 C7.99 36.505 7.99 36.505 9 36 C9.33 25.77 9.66 15.54 10 5 C14 6 14 6 17 8 C17.26697888 10.62462244 17.34832984 13.01065933 17.29296875 15.6328125 C17.28872391 16.38464813 17.28447906 17.13648376 17.28010559 17.91110229 C17.2632917 20.31609685 17.22563624 22.72025809 17.1875 25.125 C17.17245659 26.75389416 17.15876758 28.38280144 17.14648438 30.01171875 C17.11337954 34.00813434 17.06158009 38.00392582 17 42 C14.35559624 43.50256989 11.70958148 45.0021612 9.0625 46.5 C8.30775391 46.92925781 7.55300781 47.35851562 6.77539062 47.80078125 C6.05673828 48.20683594 5.33808594 48.61289063 4.59765625 49.03125 C3.60004272 49.59682617 3.60004272 49.59682617 2.58227539 50.17382812 C1 51 1 51 0 51 C0 34.17 0 17.34 0 0 Z " fill="#F39700" transform="translate(133,59)"/>
<path d="M0 0 C0 2.64 0 5.28 0 8 C-5.75 11 -5.75 11 -8 11 C-8 18.92 -8 26.84 -8 35 C-6.35 35.66 -4.7 36.32 -3 37 C-2.01 37.66 -1.02 38.32 0 39 C0.29296875 41.6015625 0.29296875 41.6015625 0.1875 44.625 C0.16042969 45.62789062 0.13335937 46.63078125 0.10546875 47.6640625 C0.07066406 48.43492188 0.03585938 49.20578125 0 50 C-5.53636532 47.78545387 -10.76524219 44.85532244 -16 42 C-16 30.45 -16 18.9 -16 7 C-2 0 -2 0 0 0 Z " fill="#F39700" transform="translate(96,59)"/>
<path d="M0 0 C1.98 0 3.96 0 6 0 C8.1171875 2.625 8.1171875 2.625 9.875 6 C10.47054687 7.11375 11.06609375 8.2275 11.6796875 9.375 C12.33324219 10.674375 12.33324219 10.674375 13 12 C13.33 8.04 13.66 4.08 14 0 C15.98 0 17.96 0 20 0 C20 8.25 20 16.5 20 25 C17.69 25 15.38 25 13 25 C10.78515625 22.375 10.78515625 22.375 9.0625 19 C8.47597656 17.88625 7.88945313 16.7725 7.28515625 15.625 C6.64900391 14.325625 6.64900391 14.325625 6 13 C5.67 16.96 5.34 20.92 5 25 C3.35 25 1.7 25 0 25 C0 16.75 0 8.5 0 0 Z " fill="#231815" transform="translate(572,108)"/>
<path d="M0 0 C1.65 0 3.3 0 5 0 C6.984375 2.1171875 6.984375 2.1171875 8.75 4.875 C9.34296875 5.77992187 9.9359375 6.68484375 10.546875 7.6171875 C12 10 12 10 13 12 C13.33 8.04 13.66 4.08 14 0 C15.98 0 17.96 0 20 0 C20 8.25 20 16.5 20 25 C17.69 25 15.38 25 13 25 C10.78515625 22.375 10.78515625 22.375 9.0625 19 C8.47597656 17.88625 7.88945312 16.7725 7.28515625 15.625 C6.64900391 14.325625 6.64900391 14.325625 6 13 C5.67 16.96 5.34 20.92 5 25 C3.35 25 1.7 25 0 25 C0 16.75 0 8.5 0 0 Z " fill="#231815" transform="translate(350,108)"/>
<path d="M0 0 C1.98 0 3.96 0 6 0 C7.81896996 2.21439822 9.05036585 4.02082091 10.375 6.5 C10.72949219 7.12003906 11.08398438 7.74007812 11.44921875 8.37890625 C12.31961604 9.90798257 13.16255124 11.45263275 14 13 C14.33 8.71 14.66 4.42 15 0 C16.65 0 18.3 0 20 0 C20 8.25 20 16.5 20 25 C18.02 25 16.04 25 14 25 C11.8828125 22.59375 11.8828125 22.59375 10.125 19.5 C9.52945312 18.4790625 8.93390625 17.458125 8.3203125 16.40625 C7.88460938 15.6121875 7.44890625 14.818125 7 14 C6.67 17.63 6.34 21.26 6 25 C4.02 25 2.04 25 0 25 C0 16.75 0 8.5 0 0 Z " fill="#231815" transform="translate(475,108)"/>
<path d="M0 0 C3.16025526 1.80586015 4.57721965 2.82922364 5.8125 6.25 C5.874375 6.8275 5.93625 7.405 6 8 C4.02 8.33 2.04 8.66 0 9 C-0.33 8.01 -0.66 7.02 -1 6 C-5.10645548 5.67764442 -5.10645548 5.67764442 -8.875 7.0625 C-10.62409203 10.07482516 -10.30401551 12.59502627 -10 16 C-9.34 16.99 -8.68 17.98 -8 19 C-6.02252878 19.36297936 -6.02252878 19.36297936 -3.875 19.1875 C-2.59625 19.125625 -1.3175 19.06375 0 19 C0 18.01 0 17.02 0 16 C-1.65 16 -3.3 16 -5 16 C-5 14.35 -5 12.7 -5 11 C-1.37 11 2.26 11 6 11 C6.60416667 21.27083333 6.60416667 21.27083333 4.1875 24.1875 C-1.61877564 25.66753105 -7.45424259 26.03908466 -13.0625 23.75 C-15.82850444 21.25167341 -16.84099748 19.10799648 -17.37109375 15.4140625 C-17.57244881 6.95715017 -17.57244881 6.95715017 -14.625 3.375 C-10.07844533 -0.73854946 -5.9570876 -0.68375377 0 0 Z " fill="#231815" transform="translate(519,108)"/>
<path d="M0 0 C3.0625 1.1875 3.0625 1.1875 5 3 C5.8125 5.6875 5.8125 5.6875 6 8 C4.02 8.33 2.04 8.66 0 9 C-0.66 8.01 -1.32 7.02 -2 6 C-4.31 6.33 -6.62 6.66 -9 7 C-9.185625 8.258125 -9.37125 9.51625 -9.5625 10.8125 C-9.66691406 11.52019531 -9.77132813 12.22789063 -9.87890625 12.95703125 C-10.13904799 15.2025342 -10.13904799 15.2025342 -9 18 C-6.21136993 19.39431504 -4.07921132 19.25660094 -1 19 C-0.34 18.01 0.32 17.02 1 16 C-0.98 16 -2.96 16 -5 16 C-5 14.35 -5 12.7 -5 11 C-1.37 11 2.26 11 6 11 C6 14.96 6 18.92 6 23 C0.61260413 25.69369793 -4.06378738 25.66589526 -10 25 C-13.56531075 23.00342598 -15.79707285 20.9368525 -17 17 C-17.45384141 11.37236648 -17.16579197 7.86175195 -14 3 C-9.68692022 -0.93884292 -5.57656442 -0.65872039 0 0 Z " fill="#231815" transform="translate(393,108)"/>
<path d="M0 0 C0.845625 0.00386719 1.69125 0.00773437 2.5625 0.01171875 C5.18050461 0.33477381 6.80737766 0.85236875 9 2.3125 C10.25 5.4375 10.25 5.4375 11 8.3125 C8.1875 9 8.1875 9 5 9.3125 C4 8.3125 3 7.3125 2 6.3125 C-1.11993606 6.38792341 -1.11993606 6.38792341 -4 7.3125 C-5.50934217 10.33118434 -5.17510672 12.98547229 -5 16.3125 C-4.34 17.3025 -3.68 18.2925 -3 19.3125 C-1.02252878 19.67547936 -1.02252878 19.67547936 1.125 19.5 C2.40375 19.438125 3.6825 19.37625 5 19.3125 C5 18.3225 5 17.3325 5 16.3125 C3.35 16.3125 1.7 16.3125 0 16.3125 C0 14.6625 0 13.0125 0 11.3125 C3.63 11.3125 7.26 11.3125 11 11.3125 C11.60416667 21.58333333 11.60416667 21.58333333 9.1875 24.5 C3.91982548 25.84274056 -1.98370997 26.84114407 -7.01171875 24.29296875 C-9.64676985 22.18109971 -10.9294757 20.52407291 -12 17.3125 C-12.4161764 13.03868854 -12.47646722 9.40837461 -10.75 5.4375 C-7.52375136 1.51991237 -5.14323982 -0.10192396 0 0 Z " fill="#231815" transform="translate(430,107.6875)"/>
<path d="M0 0 C3.58875 -0.061875 3.58875 -0.061875 7.25 -0.125 C7.99668945 -0.14320801 8.74337891 -0.16141602 9.51269531 -0.18017578 C13.17143856 -0.21068171 15.96432456 -0.14901776 19 2 C20.54586876 5.09173752 20.29359521 7.59429552 20 11 C18 13.4375 18 13.4375 16 15 C16.61875 15.721875 17.2375 16.44375 17.875 17.1875 C19.83666353 19.78381938 20.95316 21.94671666 22 25 C18.9375 25.5625 18.9375 25.5625 15 25 C12.89182671 22.8360095 11.25815519 20.57467562 9.578125 18.06640625 C8.09122196 15.71817171 8.09122196 15.71817171 5 15 C5 18.3 5 21.6 5 25 C3.35 25 1.7 25 0 25 C0 16.75 0 8.5 0 0 Z M5 5 C5 6.65 5 8.3 5 10 C7.64 10 10.28 10 13 10 C13.33 8.68 13.66 7.36 14 6 C11.04335481 4.5216774 8.25770263 4.93967217 5 5 Z " fill="#231815" transform="translate(663,108)"/>
<path d="M0 0 C2.625 1.75 2.625 1.75 4 4 C4 5.32 4 6.64 4 8 C2.02 8 0.04 8 -2 8 C-2.33 7.34 -2.66 6.68 -3 6 C-4.65 6 -6.3 6 -8 6 C-5.52295499 8.47704501 -3.24880185 9.04945734 0.02734375 10.12109375 C2.2683306 11.11955324 3.48412551 12.0749324 5 14 C5.49704206 17.90533049 5.62822766 20.08182112 3.375 23.375 C-0.76039541 26.20448107 -3.82640578 26.2188057 -8.6875 25.3125 C-12.12603521 23.95006152 -13.36625106 23.26749789 -15 20 C-15 18.68 -15 17.36 -15 16 C-13.02 16 -11.04 16 -9 16 C-8.67 16.99 -8.34 17.98 -8 19 C-6.02 19 -4.04 19 -2 19 C-1.67 18.01 -1.34 17.02 -1 16 C-1.60328125 15.89042969 -2.2065625 15.78085938 -2.828125 15.66796875 C-11.7832731 13.89138292 -11.7832731 13.89138292 -14 11 C-14.54954532 8.23491935 -14.74860434 5.73020405 -14 3 C-9.96750852 -1.04165623 -5.37908955 -0.81311819 0 0 Z " fill="#231815" transform="translate(704,108)"/>
<path d="M0 0 C6.27 0 12.54 0 19 0 C19 1.65 19 3.3 19 5 C14.71 5 10.42 5 6 5 C6 6.65 6 8.3 6 10 C9.96 10 13.92 10 18 10 C18 11.65 18 13.3 18 15 C14.04 15 10.08 15 6 15 C6 16.65 6 18.3 6 20 C10.29 20 14.58 20 19 20 C19 21.65 19 23.3 19 25 C12.73 25 6.46 25 0 25 C0 16.75 0 8.5 0 0 Z " fill="#231815" transform="translate(637,108)"/>
<path d="M0 0 C1.98 0 3.96 0 6 0 C6 3.3 6 6.6 6 10 C8.64 10 11.28 10 14 10 C14 6.7 14 3.4 14 0 C15.98 0 17.96 0 20 0 C20 8.25 20 16.5 20 25 C18.02 25 16.04 25 14 25 C14 21.7 14 18.4 14 15 C11.36 15 8.72 15 6 15 C6 18.3 6 21.6 6 25 C4.02 25 2.04 25 0 25 C0 16.75 0 8.5 0 0 Z " fill="#231815" transform="translate(295,108)"/>
<path d="M0 0 C1.98 0 3.96 0 6 0 C6.06058594 1.28777344 6.12117187 2.57554688 6.18359375 3.90234375 C6.26798247 5.58074159 6.3526313 7.25912636 6.4375 8.9375 C6.47681641 9.78763672 6.51613281 10.63777344 6.55664062 11.51367188 C6.59853516 12.32255859 6.64042969 13.13144531 6.68359375 13.96484375 C6.72025146 14.7137085 6.75690918 15.46257324 6.79467773 16.23413086 C6.81771063 18.02461326 6.81771063 18.02461326 8 19 C9.65 19 11.3 19 13 19 C13.33 12.73 13.66 6.46 14 0 C15.98 0 17.96 0 20 0 C20.11632513 3.41637953 20.18728897 6.83224897 20.25 10.25 C20.30027344 11.70212891 20.30027344 11.70212891 20.3515625 13.18359375 C20.44956654 20.28888657 20.44956654 20.28888657 18.328125 23.64453125 C15.5062574 25.28746423 13.75445561 25.50455609 10.5 25.4375 C9.09234375 25.43556641 9.09234375 25.43556641 7.65625 25.43359375 C4.57440845 24.93052844 3.19741209 24.2024062 1 22 C0.07747688 19.18149148 -0.11874641 16.62449728 -0.09765625 13.671875 C-0.09282227 12.47304687 -0.09282227 12.47304687 -0.08789062 11.25 C-0.07951172 10.425 -0.07113281 9.6 -0.0625 8.75 C-0.05798828 7.90953125 -0.05347656 7.0690625 -0.04882812 6.203125 C-0.03707961 4.13538599 -0.01914522 2.06768376 0 0 Z " fill="#231815" transform="translate(544,108)"/>
<path d="M0 0 C1.98 0 3.96 0 6 0 C9.91631266 8.16592852 13.0647725 16.44412409 16 25 C13.69 25 11.38 25 9 25 C8.505 22.525 8.505 22.525 8 20 C6.54052295 20.06006078 5.08220728 20.1488689 3.625 20.25 C2.81289063 20.29640625 2.00078125 20.3428125 1.1640625 20.390625 C-1.18838927 20.7922092 -1.18838927 20.7922092 -2.2890625 23.046875 C-2.52367187 23.69140625 -2.75828125 24.3359375 -3 25 C-4.98 25 -6.96 25 -9 25 C-8.38965243 21.51423718 -7.48391539 18.4128077 -6.15234375 15.13671875 C-5.61577148 13.80737305 -5.61577148 13.80737305 -5.06835938 12.45117188 C-4.50858398 11.0831543 -4.50858398 11.0831543 -3.9375 9.6875 C-3.56044922 8.75615234 -3.18339844 7.82480469 -2.79492188 6.86523438 C-1.86716875 4.57521083 -0.93541999 2.28690004 0 0 Z M3 9 C0.7226499 11.81509993 0.7226499 11.81509993 1 15 C2.32 15 3.64 15 5 15 C4.67 13.02 4.34 11.04 4 9 C3.67 9 3.34 9 3 9 Z " fill="#231815" transform="translate(329,108)"/>
<path d="M0 0 C1.98 0 3.96 0 6 0 C6.33 6.27 6.66 12.54 7 19 C8.98 19.33 10.96 19.66 13 20 C13.33 13.4 13.66 6.8 14 0 C15.98 0 17.96 0 20 0 C20.08115993 3.06303578 20.14057409 6.12390815 20.1875 9.1875 C20.21263672 10.05181641 20.23777344 10.91613281 20.26367188 11.80664062 C20.32022752 16.72698209 20.19276261 19.98693063 17 24 C15.19824298 25.80175702 12.62265322 25.29844137 10.1875 25.375 C9.12917969 25.42398438 8.07085937 25.47296875 6.98046875 25.5234375 C4 25 4 25 1.62890625 23.12109375 C-0.71966511 18.62107333 -0.43342258 14.67871072 -0.25 9.6875 C-0.23195313 8.75615234 -0.21390625 7.82480469 -0.1953125 6.86523438 C-0.14834888 4.57575803 -0.08269475 2.28841816 0 0 Z " fill="#231815" transform="translate(448,108)"/>
<path d="M0 0 C3.0625 2.3125 3.0625 2.3125 5 5 C5 5.99 5 6.98 5 8 C3.02 8.33 1.04 8.66 -1 9 C-1.66 8.01 -2.32 7.02 -3 6 C-6.29075996 6.37904208 -6.29075996 6.37904208 -9 8 C-9.09823996 9.47648876 -9.12973519 10.95775417 -9.125 12.4375 C-9.12757813 13.24058594 -9.13015625 14.04367188 -9.1328125 14.87109375 C-9.13578326 17.05397931 -9.13578326 17.05397931 -8 19 C-5.66834966 19.33498301 -5.66834966 19.33498301 -3 19 C-2.319375 18.319375 -1.63875 17.63875 -0.9375 16.9375 C-0.298125 16.298125 0.34125 15.65875 1 15 C3.25 15.25 3.25 15.25 5 16 C4.51029323 21.50920111 4.51029323 21.50920111 2.26171875 23.671875 C-1.63935086 25.96265854 -5.61642403 25.65257118 -10 25 C-13.55680172 22.89495409 -14.69468936 21.91593192 -16 18 C-16.39558481 13.08561954 -16.62954419 8.54238326 -14.75 3.9375 C-10.74820039 -0.49306386 -5.68098223 -1.01085093 0 0 Z " fill="#231815" transform="translate(283,108)"/>
<path d="M0 0 C1.98 0 3.96 0 6 0 C6.83986084 1.93467942 7.67168027 3.87285129 8.5 5.8125 C8.9640625 6.89144531 9.428125 7.97039062 9.90625 9.08203125 C11 12 11 12 11 15 C11.66 15 12.32 15 13 15 C13.12117187 14.41992188 13.24234375 13.83984375 13.3671875 13.2421875 C14.33735474 8.71971558 15.43397783 4.36249034 17 0 C18.98 0 20.96 0 23 0 C22.3440206 5.63587931 20.43967159 10.60988342 18.4375 15.875 C18.10814453 16.75414063 17.77878906 17.63328125 17.43945312 18.5390625 C16.63113386 20.69458053 15.81787706 22.84809441 15 25 C12.69 25 10.38 25 8 25 C6.66165014 21.21008507 5.33017337 17.41779164 4 13.625 C3.6184375 12.54476562 3.236875 11.46453125 2.84375 10.3515625 C2.4828125 9.3203125 2.121875 8.2890625 1.75 7.2265625 C1.41484375 6.27346191 1.0796875 5.32036133 0.734375 4.33837891 C0 2 0 2 0 0 Z " fill="#231815" transform="translate(609,108)"/>
<path d="M0 0 C3.25 -0.375 3.25 -0.375 7 0 C11 4.71794872 11 4.71794872 11 8 C11.66 8 12.32 8 13 8 C13.28875 7.236875 13.5775 6.47375 13.875 5.6875 C15 3 15 3 17 0 C20.125 -0.1875 20.125 -0.1875 23 0 C22.36978853 3.45828543 20.97435566 5.68164931 19 8.5625 C15.63805489 13.95930663 15.02386425 18.72370137 15 25 C13.02 25 11.04 25 9 25 C9.020625 24.34515625 9.04125 23.6903125 9.0625 23.015625 C8.88580108 15.19669771 6.32575573 10.66521292 1.71484375 4.43359375 C0 2 0 2 0 0 Z " fill="#231815" transform="translate(749,108)"/>
<path d="M0 0 C6.6 0 13.2 0 20 0 C20 1.65 20 3.3 20 5 C17.69 5 15.38 5 13 5 C13 11.6 13 18.2 13 25 C11.02 25 9.04 25 7 25 C7 18.4 7 11.8 7 5 C4.69 5 2.38 5 0 5 C0 3.35 0 1.7 0 0 Z " fill="#231815" transform="translate(726,108)"/>
<path d="M0 0 C1.98 0 3.96 0 6 0 C6 8.25 6 16.5 6 25 C4.02 25 2.04 25 0 25 C0 16.75 0 8.5 0 0 Z " fill="#231815" transform="translate(715,108)"/>
<path d="M0 0 C1.98 0 3.96 0 6 0 C6 8.25 6 16.5 6 25 C4.02 25 2.04 25 0 25 C0 16.75 0 8.5 0 0 Z " fill="#231815" transform="translate(599,108)"/>
</svg>
